<svg xmlns="http://www.w3.org/2000/svg" width="1600" height="900" viewBox="0 0 1600 900">
  <defs>
    <linearGradient id="bg" x1="0" y1="0" x2="1" y2="1">
      <stop offset="0" stop-color="#E6FBFF"/>
      <stop offset="1" stop-color="#D3F4FA"/>
    </linearGradient>
    <linearGradient id="accent" x1="0" y1="0" x2="1" y2="1">
      <stop offset="0" stop-color="#00B8D9"/>
      <stop offset="1" stop-color="#00D4C3"/>
    </linearGradient>
    <filter id="shadow" x="-20%" y="-20%" width="140%" height="140%">
      <feDropShadow dx="0" dy="14" stdDeviation="14" flood-color="#06232B" flood-opacity="0.16"/>
    </filter>
  </defs>
  <rect width="1600" height="900" rx="28" fill="url(#bg)"/>
  <g filter="url(#shadow)">
    <rect x="220" y="210" width="1160" height="520" rx="22" fill="#FFFFFF"/>
    <rect x="260" y="250" width="720" height="440" rx="20" fill="url(#accent)" opacity="0.10"/>
    <!-- route -->
    <path d="M320 610c120-210 240-260 360-140 130 128 230 98 300-50" fill="none" stroke="url(#accent)" stroke-width="12" stroke-linecap="round"/>
    <circle cx="320" cy="610" r="10" fill="#06232B" opacity="0.6"/>
    <circle cx="980" cy="420" r="10" fill="#06232B" opacity="0.6"/>
    <!-- pins -->
    <g fill="url(#accent)" opacity="0.22" stroke="#06232B" stroke-width="10">
      <path d="M500 470c0-35 29-64 64-64s64 29 64 64c0 56-64 120-64 120s-64-64-64-120z"/>
      <path d="M720 520c0-35 29-64 64-64s64 29 64 64c0 56-64 120-64 120s-64-64-64-120z"/>
    </g>
    <rect x="1040" y="250" width="300" height="440" rx="20" fill="#FFFFFF"/>
    <rect x="1070" y="290" width="240" height="18" rx="9" fill="#B7EAF2"/>
    <rect x="1070" y="330" width="210" height="18" rx="9" fill="#B7EAF2"/>
    <rect x="1070" y="390" width="240" height="120" rx="16" fill="url(#accent)" opacity="0.10"/>
    <rect x="1070" y="540" width="170" height="18" rx="9" fill="#B7EAF2"/>
    <rect x="1070" y="580" width="210" height="18" rx="9" fill="#B7EAF2"/>
  </g>
  <text x="80" y="120" font-family="Calibre, system-ui, -apple-system, Segoe UI, Arial" font-size="44" fill="#06232B" opacity="0.85">
    Field Operations View
  </text>
  <text x="80" y="170" font-family="SF Mono, Consolas, Menlo, monospace" font-size="22" fill="#12424D" opacity="0.8">
    Map workflow " Assignments " Status tracking
  </text>
</svg>

